<?xml version="1.0" standalone="no"?>
<!DOCTYPE svg PUBLIC "-//W3C//DTD SVG 20010904//EN"
 "http://www.w3.org/TR/2001/REC-SVG-20010904/DTD/svg10.dtd">
<svg version="1.0" xmlns="http://www.w3.org/2000/svg"
 width="1162.000000pt" height="1162.000000pt" viewBox="0 0 1162.000000 1162.000000"
 preserveAspectRatio="xMidYMid meet">
<metadata>
Created by potrace 1.14, written by Peter Selinger 2001-2017
</metadata>
<g transform="translate(0.000000,1162.000000) scale(0.100000,-0.100000)"
fill="#000000" stroke="none">
<path d="M8212 10560 c-238 -63 -402 -227 -481 -483 -11 -37 -29 -129 -40
-205 -11 -75 -196 -1388 -411 -2917 -214 -1529 -393 -2791 -396 -2804 -4 -20
-14 -4 -54 84 -248 544 -657 1065 -1135 1446 -559 445 -1222 729 -1934 829
-1091 153 -2090 -175 -2822 -927 -545 -559 -854 -1264 -898 -2049 -36 -638
142 -1223 526 -1727 93 -121 304 -336 423 -431 350 -277 743 -451 1191 -526
158 -27 473 -38 614 -21 460 54 867 243 1189 551 380 363 599 835 632 1359 l7
111 3488 0 c2064 0 3489 4 3489 9 0 19 -94 133 -158 191 -131 121 -277 199
-452 243 -69 17 -116 21 -250 22 l-165 0 102 151 c292 433 483 813 535 1064
43 207 -17 470 -156 678 -58 87 -191 216 -289 280 -176 115 -408 171 -624 151
-48 -4 -89 -6 -91 -4 -4 4 -549 2507 -558 2565 -6 34 -4 37 78 101 212 169
396 409 502 657 36 85 89 249 101 312 4 19 9 43 11 52 4 13 -48 57 -213 180
-120 89 -262 188 -315 219 -175 101 -402 179 -570 194 l-78 7 0 329 0 329 -43
0 c-129 0 -301 -75 -412 -181 -81 -77 -125 -139 -161 -227 l-24 -57 0 233 0
232 -42 -1 c-24 0 -76 -9 -116 -19z m439 -1090 c120 -37 211 -117 266 -236 25
-53 28 -70 28 -169 0 -103 -2 -114 -32 -178 -129 -272 -487 -329 -693 -111
-154 163 -154 415 0 578 114 120 277 164 431 116z"/>
</g>
</svg>
