<?xml version="1.0" standalone="no"?>
<!DOCTYPE svg PUBLIC "-//W3C//DTD SVG 20010904//EN"
 "http://www.w3.org/TR/2001/REC-SVG-20010904/DTD/svg10.dtd">
<svg version="1.0" xmlns="http://www.w3.org/2000/svg"
 width="506.000000pt" height="430.000000pt" viewBox="0 0 506.000000 430.000000"
 preserveAspectRatio="xMidYMid meet">

<g transform="translate(0.000000,430.000000) scale(0.100000,-0.100000)"
fill="#000000" stroke="none">
<path d="M3877 4238 c-85 -18 -163 -80 -208 -168 l-24 -45 -3 85 c-3 114 -7
130 -35 130 -68 0 -192 -98 -215 -171 -13 -38 -65 -390 -177 -1179 -157 -1114
-205 -1443 -209 -1447 -2 -2 -32 47 -66 109 -109 200 -165 274 -320 428 -165
166 -266 239 -455 330 -123 60 -250 106 -390 142 -66 17 -121 21 -321 25 -238
5 -244 5 -350 -22 -329 -82 -591 -254 -787 -514 -118 -157 -194 -319 -245
-521 -23 -93 -26 -125 -27 -280 0 -197 12 -269 68 -420 53 -141 118 -240 237
-361 210 -213 440 -321 716 -336 123 -6 239 7 337 38 326 106 563 393 602 729
3 30 8 67 11 81 l5 27 1504 7 1504 7 -16 25 c-27 41 -124 103 -193 123 -36 11
-100 23 -142 27 l-77 8 83 127 c147 224 196 336 196 443 0 67 -25 153 -64 219
-34 59 -127 143 -188 171 -62 28 -175 48 -222 40 -21 -4 -36 -2 -42 7 -6 7
-61 264 -124 570 l-113 558 67 62 c109 99 206 256 230 374 8 38 -13 61 -141
151 -119 82 -173 104 -340 139 -22 4 -23 9 -25 147 l-3 143 -38 -8z m-81 -477
c136 -62 145 -264 14 -331 -48 -25 -129 -26 -177 -4 -72 35 -115 132 -94 211
31 113 152 172 257 124z"/>
</g>
</svg>
